<svg width="140" height="38" viewBox="0 0 140 38" fill="none" xmlns="http://www.w3.org/2000/svg">
<path d="M10.3101 29.3027C8.3128 29.3027 6.54595 28.8482 5.00955 27.9392C3.47315 27.0173 2.26964 25.7562 1.39902 24.1558C0.52839 22.5554 0.093078 20.7501 0.093078 18.74C0.093078 16.7171 0.52839 14.9182 1.39902 13.3434C2.26964 11.7686 3.47315 10.5331 5.00955 9.63684C6.54595 8.74061 8.3128 8.29249 10.3101 8.29249C12.3074 8.29249 14.0743 8.74061 15.6107 9.63684C17.1471 10.5331 18.3506 11.7686 19.2212 13.3434C20.0918 14.9182 20.5272 16.7171 20.5272 18.74C20.5272 20.7501 20.0918 22.5554 19.2212 24.1558C18.3506 25.7562 17.1471 27.0173 15.6107 27.9392C14.0743 28.8482 12.3074 29.3027 10.3101 29.3027ZM10.3101 27.1326C11.8465 27.1326 13.1973 26.7741 14.3624 26.0571C15.5403 25.3401 16.4621 24.3478 17.1279 23.0803C17.7937 21.8128 18.1265 20.366 18.1265 18.74C18.1265 17.1012 17.7937 15.6608 17.1279 14.4189C16.4621 13.177 15.5403 12.2103 14.3624 11.5189C13.1973 10.8147 11.8465 10.4627 10.3101 10.4627C8.78652 10.4627 7.43578 10.8147 6.25787 11.5189C5.07997 12.2103 4.15813 13.177 3.49236 14.4189C2.82658 15.6608 2.4937 17.1012 2.4937 18.74C2.4937 20.366 2.82658 21.8128 3.49236 23.0803C4.15813 24.3478 5.07997 25.3401 6.25787 26.0571C7.43578 26.7741 8.78652 27.1326 10.3101 27.1326ZM23.2468 37.3496V8.56136H25.6282V37.3496H23.2468ZM32.6573 29.3219C31.0953 29.3219 29.6485 28.9442 28.3169 28.1888C26.9854 27.4334 25.9099 26.4092 25.0905 25.116C24.2839 23.8229 23.8806 22.3697 23.8806 20.7565C23.8806 20.7181 23.8806 20.6861 23.8806 20.6605C23.8806 20.6349 23.8806 20.6093 23.8806 20.5837L25.6282 20.5453C25.6282 20.5709 25.6282 20.5965 25.6282 20.6221C25.6282 20.6477 25.6282 20.6733 25.6282 20.6989C25.6282 21.8512 25.9419 22.9139 26.5693 23.8869C27.1966 24.86 28.0161 25.6346 29.0275 26.2107C30.0518 26.7869 31.1593 27.0749 32.35 27.0749C34.3217 27.0749 35.9413 26.3772 37.2088 24.9816C38.4892 23.5732 39.1293 21.4991 39.1293 18.7592C39.1293 16.0065 38.4892 13.9323 37.2088 12.5368C35.9413 11.1412 34.3217 10.4434 32.35 10.4434C31.1593 10.4434 30.0518 10.7315 29.0275 11.3077C28.0161 11.8838 27.1966 12.652 26.5693 13.6123C25.9419 14.5725 25.6282 15.6352 25.6282 16.8003L23.8806 16.7427C23.8806 15.1295 24.2839 13.6827 25.0905 12.4024C25.9099 11.122 26.9854 10.117 28.3169 9.38717C29.6485 8.64458 31.0953 8.27329 32.6573 8.27329C34.3089 8.27329 35.8069 8.68299 37.1512 9.5024C38.4956 10.309 39.5646 11.4933 40.3584 13.0553C41.1651 14.6173 41.5684 16.5186 41.5684 18.7592C41.5684 21.0254 41.1715 22.9459 40.3776 24.5207C39.5966 26.0955 38.5276 27.2926 37.1704 28.112C35.8261 28.9186 34.3217 29.3219 32.6573 29.3219ZM44.7393 19.7579V17.6261H61.2556L60.7947 18.2791C60.7947 18.2023 60.7947 18.1382 60.7947 18.087C60.7947 18.023 60.7947 17.959 60.7947 17.895C60.7947 16.5762 60.513 15.3471 59.9497 14.2076C59.3863 13.0681 58.5669 12.1527 57.4914 11.4613C56.4288 10.7699 55.1292 10.4242 53.5928 10.4242C52.0308 10.4242 50.6545 10.7827 49.4638 11.4997C48.2731 12.2039 47.3448 13.1834 46.679 14.4381C46.0133 15.68 45.6804 17.1268 45.6804 18.7784C45.6804 20.4428 46.0069 21.9088 46.6598 23.1763C47.3256 24.4311 48.2538 25.4105 49.4446 26.1147C50.6353 26.8061 52.0244 27.1518 53.612 27.1518C54.7771 27.1518 55.7886 27.0109 56.6464 26.7293C57.517 26.4348 58.234 26.0507 58.7974 25.577C59.3735 25.1032 59.8088 24.6039 60.1033 24.079C60.4106 23.5412 60.5898 23.0355 60.641 22.5618H63.0033C62.952 23.3172 62.7088 24.0918 62.2735 24.8856C61.851 25.6666 61.2428 26.3964 60.449 27.0749C59.668 27.7535 58.6949 28.3041 57.5298 28.7266C56.3775 29.1363 55.046 29.3411 53.5352 29.3411C51.5635 29.3411 49.8094 28.893 48.2731 27.9968C46.7495 27.1006 45.5459 25.865 44.6625 24.2902C43.7919 22.7026 43.3566 20.8781 43.3566 18.8168C43.3566 16.7427 43.7983 14.9182 44.6817 13.3434C45.5652 11.7558 46.7751 10.5139 48.3115 9.61763C49.8479 8.7214 51.5955 8.27329 53.5544 8.27329C55.5517 8.27329 57.2802 8.7278 58.7398 9.63684C60.1993 10.5459 61.326 11.7814 62.1198 13.3434C62.9136 14.8926 63.3105 16.6338 63.3105 18.5671C63.3105 18.7336 63.3041 18.9448 63.2913 19.2009C63.2913 19.457 63.2849 19.6426 63.2721 19.7579H44.7393ZM80.6953 28.957V18.8168C80.6953 18.1894 80.6953 17.6901 80.6953 17.3188C80.6953 16.9475 80.6953 16.5826 80.6953 16.2241C80.6953 15.0846 80.4904 14.0924 80.0807 13.2474C79.6838 12.3896 79.0693 11.7238 78.2371 11.2501C77.4048 10.7635 76.3358 10.5203 75.0298 10.5203C73.8775 10.5203 72.7957 10.8083 71.7842 11.3845C70.7727 11.9478 69.9533 12.716 69.326 13.6891C68.7114 14.6621 68.4041 15.7568 68.4041 16.9731L66.9637 16.4354C66.9637 14.8862 67.3606 13.497 68.1545 12.2679C68.9611 11.0388 70.0109 10.0657 71.3041 9.34876C72.61 8.63178 73.9928 8.27329 75.4523 8.27329C77.0015 8.27329 78.3459 8.56776 79.4854 9.15672C80.6249 9.73286 81.5019 10.5715 82.1165 11.6726C82.7438 12.7608 83.0575 14.086 83.0575 15.648C83.0575 16.1857 83.0575 16.7619 83.0575 17.3764C83.0575 17.991 83.0575 18.5479 83.0575 19.0473V28.957H80.6953ZM66.0227 28.957V8.56136H68.4041V28.957H66.0227Z" fill="#222222"/>
<path fill-rule="evenodd" clip-rule="evenodd" d="M131.185 22.7545C131.424 24.2082 133.321 24.9876 134.575 23.4728C135.515 22.3365 137.198 22.1774 138.334 23.1175C139.47 24.0575 139.63 25.7407 138.689 26.877C134.289 32.1957 126.126 29.3361 125.848 22.6288C125.837 22.5337 125.832 22.4398 125.832 22.3476L125.844 8.4679C125.844 7.08604 127.04 5.96582 128.514 5.96582C129.989 5.96582 131.185 7.08605 131.185 8.46791L131.185 22.7545Z" fill="url(#paint0_linear_3569_4956)"/>
<path fill-rule="evenodd" clip-rule="evenodd" d="M101.288 7.97184C102.565 8.70921 103.003 10.3423 102.265 11.6195L92.8508 27.9258C92.1134 29.2029 90.4803 29.6405 89.2032 28.9031C87.926 28.1658 87.4884 26.5327 88.2258 25.2555L97.6402 8.94922C98.3776 7.67206 100.011 7.23447 101.288 7.97184Z" fill="url(#paint1_linear_3569_4956)"/>
<path fill-rule="evenodd" clip-rule="evenodd" d="M115.735 29.4004C114.26 29.4004 113.065 28.2049 113.065 26.7301L113.065 12.5149C113.065 11.0402 114.26 9.84469 115.735 9.84469C117.21 9.84469 118.405 11.0402 118.405 12.5149L118.405 26.7301C118.405 28.2049 117.21 29.4004 115.735 29.4004Z" fill="url(#paint2_linear_3569_4956)"/>
<path fill-rule="evenodd" clip-rule="evenodd" d="M117.975 18.767L116.993 18.787L113.062 18.7606C113.098 17.7576 113.699 15.8914 114.154 15.018C114.63 14.1051 115.307 13.1655 116.163 12.3593C117.885 10.7377 120.619 9.45277 123.798 10.6446C125.064 11.1192 125.705 12.53 125.23 13.7958C124.756 15.0616 123.345 15.703 122.079 15.2285C121.187 14.894 120.359 15.1322 119.519 15.9233C119.094 16.3235 118.741 16.6639 118.495 17.2808C118.376 17.8518 118.402 18.7603 118.402 18.7603L117.975 18.767Z" fill="url(#paint3_linear_3569_4956)"/>
<path fill-rule="evenodd" clip-rule="evenodd" d="M125.832 13.0779L125.832 10.8164L134.619 10.8165C135.62 10.8165 136.96 11.7854 136.96 13.1372C137.079 14.4341 136.017 15.712 134.619 15.712H125.844L125.832 13.0779Z" fill="url(#paint4_linear_3569_4956)"/>
<g style="mix-blend-mode:overlay" opacity="0.2">
<path d="M125.844 15.7344H131.165L131.165 18.0493H125.844V15.7344Z" fill="url(#paint5_linear_3569_4956)"/>
</g>
<path fill-rule="evenodd" clip-rule="evenodd" d="M97.4789 9.28706C97.6938 8.75192 98.0829 8.28218 98.621 7.97147C99.8982 7.2341 101.531 7.67169 102.269 8.94885L111.683 25.2551C112.42 26.5323 111.983 28.1654 110.706 28.9028C109.429 29.6401 107.795 29.2025 107.058 27.9254L99.9212 15.564L99.96 15.6637C98.544 12.8502 96.3577 12.5504 95.4417 12.7521L97.4679 9.25893L97.4789 9.28706Z" fill="url(#paint6_linear_3569_4956)"/>
<defs>
<linearGradient id="paint0_linear_3569_4956" x1="125.832" y1="5.96582" x2="144.197" y2="10.7142" gradientUnits="userSpaceOnUse">
<stop stop-color="#9D0AFC"/>
<stop offset="1" stop-color="#0359FF"/>
</linearGradient>
<linearGradient id="paint1_linear_3569_4956" x1="99.2647" y1="10.7" x2="103.585" y2="15.8913" gradientUnits="userSpaceOnUse">
<stop stop-color="#00DFBA"/>
<stop offset="1" stop-color="#048AFE"/>
</linearGradient>
<linearGradient id="paint2_linear_3569_4956" x1="115.814" y1="10.5589" x2="115.814" y2="31.0734" gradientUnits="userSpaceOnUse">
<stop stop-color="#5900EB"/>
<stop offset="1" stop-color="#E367EE"/>
</linearGradient>
<linearGradient id="paint3_linear_3569_4956" x1="115.389" y1="18.8124" x2="126.269" y2="11.522" gradientUnits="userSpaceOnUse">
<stop stop-color="#9129EC"/>
<stop offset="1" stop-color="#9F03FF"/>
</linearGradient>
<linearGradient id="paint4_linear_3569_4956" x1="131.673" y1="12.077" x2="137.877" y2="18.5678" gradientUnits="userSpaceOnUse">
<stop stop-color="#930FFC"/>
<stop offset="0.865143" stop-color="#004BFB"/>
</linearGradient>
<linearGradient id="paint5_linear_3569_4956" x1="128.504" y1="15.7769" x2="128.504" y2="17.7865" gradientUnits="userSpaceOnUse">
<stop/>
<stop offset="1" stop-opacity="0"/>
</linearGradient>
<linearGradient id="paint6_linear_3569_4956" x1="94.8343" y1="7.81207" x2="120.867" y2="14.3281" gradientUnits="userSpaceOnUse">
<stop stop-color="#0056FE"/>
<stop offset="0.815625" stop-color="#D159ED"/>
</linearGradient>
</defs>
</svg>
